<?xml version="1.0" encoding="UTF-8" standalone="no"?>
<svg
   data-name="Layer 1"
   viewBox="0 0 1920.0007 785.88794"
   x="0px"
   y="0px"
   version="1.1"
   id="svg3"
   width="1920.0007"
   height="785.88794"
   sodipodi:docname="ExpirationDate-banner.svg"
   inkscape:export-filename="../Desktop/expirationdate/android/assets/ExpirationDate-banner.png"
   inkscape:export-xdpi="96"
   inkscape:export-ydpi="96"
   inkscape:version="1.4.3 (fcd0343856, 2026-01-01)"
   xmlns:inkscape="http://www.inkscape.org/namespaces/inkscape"
   xmlns:sodipodi="http://sodipodi.sourceforge.net/DTD/sodipodi-0.dtd"
   xmlns="http://www.w3.org/2000/svg"
   xmlns:svg="http://www.w3.org/2000/svg"
   xmlns:rdf="http://www.w3.org/1999/02/22-rdf-syntax-ns#"
   xmlns:cc="http://creativecommons.org/ns#"
   xmlns:dc="http://purl.org/dc/elements/1.1/">
  <sodipodi:namedview
     id="namedview1"
     pagecolor="#ffffff"
     bordercolor="#000000"
     borderopacity="0.25"
     inkscape:showpageshadow="2"
     inkscape:pageopacity="0.0"
     inkscape:pagecheckerboard="0"
     inkscape:deskcolor="#d1d1d1"
     inkscape:zoom="0.55729144"
     inkscape:cx="960.00038"
     inkscape:cy="392.07492"
     inkscape:window-width="1920"
     inkscape:window-height="1011"
     inkscape:window-x="0"
     inkscape:window-y="0"
     inkscape:window-maximized="1"
     inkscape:current-layer="svg3">
    <inkscape:page
       x="0"
       y="0"
       width="1920.0007"
       height="785.88794"
       id="page2"
       margin="0"
       bleed="0" />
  </sodipodi:namedview>
  <defs
     id="defs3">
    <linearGradient
       id="swatch4"
       inkscape:swatch="solid">
      <stop
         style="stop-color:#000000;stop-opacity:1;"
         offset="0"
         id="stop4" />
    </linearGradient>
  </defs>
  <title
     id="title1">112all</title>
  <rect
     style="fill:#ffefef;fill-opacity:1;stroke:#864b6f;stroke-width:22.5638;stroke-linecap:round;stroke-linejoin:round;stroke-miterlimit:14.4;stroke-dasharray:none;stroke-dashoffset:0;stroke-opacity:1"
     id="rect3"
     width="1897.4369"
     height="763.32416"
     x="11.2819"
     y="11.2819"
     rx="150"
     ry="150" />
  <g
     id="g1"
     transform="matrix(5.3510238,0,0,5.3510238,-1286.6617,-2570.7936)">
    <polygon
       points="26.5,44.15 26.5,48.15 47.87,48.15 47.87,18.19 43.87,18.19 43.87,44.15 "
       id="polygon1"
       transform="translate(265.22997,502.83035)"
       style="fill:#80543d;fill-opacity:1" />
    <path
       d="m 351.67996,556.44035 a 41.9,41.9 0 1 0 -32.84,32.83 23.56,23.56 0 1 0 32.84,-32.83 z m -41,29.65 a 37.84,37.84 0 1 1 37.81,-37.84 38.26,38.26 0 0 1 -0.48,6.05 23.56,23.56 0 0 0 -31.31,31.3 38.18,38.18 0 0 1 -6.05,0.49 z m 27.42,9.16 a 19.58,19.58 0 1 1 19.55,-19.57 19.6,19.6 0 0 1 -19.57,19.57 z"
       id="path1"
       style="display:inline;fill:#864b6f;fill-opacity:1" />
    <rect
       x="336.07996"
       y="562.80035"
       width="4"
       height="18.75"
       id="rect1"
       style="fill:#ba1a1a;fill-opacity:1" />
    <rect
       x="336.07996"
       y="584.80035"
       width="4"
       height="4.75"
       id="rect2"
       style="display:inline;fill:#ba1a1a;fill-opacity:1" />
  </g>
  <metadata
     id="metadata3">
    <rdf:RDF>
      <cc:Work
         rdf:about="">
        <dc:title>112all</dc:title>
      </cc:Work>
    </rdf:RDF>
  </metadata>
  <text
     xml:space="preserve"
     style="font-size:158.197px;writing-mode:lr-tb;direction:ltr;fill:#ffffff;fill-opacity:1;stroke:none;stroke-width:0;stroke-linecap:round;stroke-linejoin:round;stroke-dasharray:none;stroke-opacity:1"
     x="682.34705"
     y="430.1358"
     id="text4"><tspan
       id="tspan4"
       x="682.34705"
       y="430.1358"
       style="font-style:normal;font-variant:normal;font-weight:normal;font-stretch:normal;font-size:158.197px;font-family:'Noto Sans';-inkscape-font-specification:'Noto Sans';fill:#000000;fill-opacity:1;stroke:none;stroke-width:0;stroke-dasharray:none;stroke-opacity:1"
       sodipodi:role="line"><tspan
         style="fill:#ba1a1a;fill-opacity:1"
         id="tspan5">Expiration</tspan><tspan
         id="tspan7"
         style="fill:#80543d;fill-opacity:1">Date</tspan></tspan></text>
</svg>
